<?xml version="1.0" encoding="UTF-8"?>
<svg clip-rule="evenodd" fill-rule="evenodd" stroke-linejoin="round" stroke-miterlimit="2" version="1.1" viewBox="0 0 200 200" xml:space="preserve" xmlns="http://www.w3.org/2000/svg"><rect width="200" height="200" fill-opacity="0"/><path d="m1.194 36.286c1.223-0.106 2.782-0.18 4.516-0.118 2.615 0.096 6.01 0.527 9.235 1.85-2.028 5.002-3.248 9.672-3.826 12.174 0.316 0.163 0.639 0.32 0.962 0.464 0.543-2.393 1.754-7.129 3.817-12.218 1.033 0.489 2.04 1.078 2.984 1.787 3.278 2.459 5.39 6.006 6.3 10.565 0.379-0.126 0.707-0.243 0.991-0.351-0.976-4.746-3.211-8.456-6.67-11.05-1.017-0.763-2.099-1.392-3.207-1.913 0.081-0.192 0.164-0.386 0.248-0.58 0.879-2.022 1.947-4.185 3.218-6.291 5.245 2.963 11.094 7.116 14.649 12.291-3.05 5.435-8.867 9.109-15.536 9.109-9.121 0-16.649-6.874-17.681-15.719zm33.761 5.561c-1.27-1.77-2.849-3.504-4.734-5.191-2.697-2.415-6.024-4.741-9.905-6.934 1.355-2.13 2.923-4.171 4.719-5.913 1.042 0.759 2.149 1.47 3.319 2.123 2.302 1.288 4.844 2.364 7.596 3.221 0.473 1.601 0.728 3.296 0.728 5.05-0 2.735-0.619 5.327-1.723 7.644zm-33.852-6.601c-0.02-0.346-0.03-0.694-0.03-1.043-0-9.826 7.977-17.803 17.802-17.803 3.755 0 7.241 1.165 10.113 3.153-1.393 0.757-2.741 1.718-4.035 2.885-1.288-0.992-2.345-1.975-3.198-2.877-1.045-1.105-1.866-2.168-2.5-3.11-0.448-0.011-0.865-7e-3 -1.246 6e-3 0.698 1.103 1.654 2.401 2.943 3.77 0.982 1.043 2.061 2.023 3.228 2.938-0.56 0.549-1.111 1.138-1.65 1.765-1.09 1.269-2.136 2.699-3.134 4.278-0.328-0.179-0.658-0.358-0.993-0.534-5.272-2.789-10.313-4.715-13.161-5.711-0.248 0.304-0.476 0.594-0.683 0.865 2.736 0.944 7.928 2.893 13.372 5.774 0.302 0.16 0.608 0.325 0.916 0.494-1.159 1.93-2.248 4.07-3.263 6.405-0.081 0.187-0.159 0.372-0.239 0.557-3.374-1.385-6.907-1.834-9.625-1.931-1.782-0.064-3.371 0.011-4.617 0.119zm28.817-15.002c2.508 1.988 4.469 4.637 5.618 7.682-4.091-1.357-7.275-3.095-9.719-4.844 1.26-1.12 2.626-2.086 4.101-2.838z" fill="#fff"/><path d="m37.072 115.96c0.898-0.49 1.927-0.768 3.02-0.768 0.6 0 1.181 0.084 1.731 0.241-0.412 1.124-0.795 2.744-0.623 4.643 0.174 1.925 0.914 4.144 2.792 6.42-1.075 0.844-2.429 1.347-3.9 1.347-1.353-0-2.607-0.426-3.636-1.151 0.584-0.611 1.042-1.308 1.376-2.069 1.076-2.457 0.841-5.605-0.76-8.663zm-0.761 0.488c1.864 3.62 1.684 7.361-0.561 9.667-1.221-1.153-1.983-2.787-1.983-4.597 0-2.074 1-3.916 2.544-5.07zm6.357-0.708c2.208 0.987 3.749 3.204 3.749 5.778-0 1.696-0.669 3.236-1.757 4.372-1.713-2.091-2.404-4.123-2.564-5.895-0.158-1.746 0.196-3.232 0.572-4.255z" fill="#fff"/><path d="m120.26 171.78c2.328-3.368 6.076-6.549 12.095-8.423-0-0 15.262-3.711 21.303 3.9 0 0 1.836 12.399-14.577 21.305-5 2.713-16.389 3.196-22.53-3.203-0-0-0.653-6.251 2.916-12.335-0.248 0.45-0.477 0.902-0.682 1.335 1.25 0.655 7.847 4.435 7.239 10.975l3.253-0.075c-2e-3 -1e-3 -0.165-11.622-9.017-13.479zm25.036-8.91c-1.412-0.23-2.759-0.336-3.895-0.377 2.797 2.424 7.52 7.674 7.215 15.289l2.386-3.378s0.066-5.902-5.706-11.534zm-6.319 3.106-0.125-0.514-1.076-0.074 0.19 0.781c-0.504 0.11-1.076 0.257-1.711 0.453l-0.306-0.79-0.942 0.229 0.22 0.904c-0.438 0.157-0.9 0.336-1.383 0.538l-0.486-0.835-0.935 0.227 0.557 0.99c-0.339 0.155-0.688 0.323-1.044 0.504l-0.461-0.851-0.865 0.546 0.472 0.753c-0.393 0.213-0.794 0.441-1.204 0.686l-0.366-0.619-1.035 0.252 0.56 0.884c-0.343 0.217-0.692 0.445-1.046 0.685l-0.623-0.795-0.752 0.603 0.58 0.746c-0.471 0.337-0.949 0.692-1.435 1.071l0.889 0.457s0.432-0.277 1.175-0.72l0.388 0.497 1.036-0.252-0.581-0.741c0.304-0.176 0.638-0.365 0.996-0.564l0.43 0.678 0.942-0.229-0.536-0.907c0.398-0.215 0.817-0.437 1.256-0.663l0.321 0.512 0.849-0.206-0.382-0.705c0.345-0.171 0.7-0.345 1.06-0.515l0.486 0.863 0.814-0.535-0.426-0.734c0.342-0.155 0.687-0.307 1.035-0.456l0.193 0.791 1.318-0.321-0.365-0.941c0.51-0.201 1.022-0.392 1.532-0.568l0.175 0.719 1.183 0.512-0.377-1.553c0.634-0.194 1.262-0.363 1.875-0.495l-0.607-0.441c0 1e-3 -0.52-6e-3 -1.463 0.143z" fill="#fff" fill-rule="nonzero"/><path d="m104.7 70.179c2.57-2.353 5.994-3.79 9.75-3.79 7.975 0 14.45 6.475 14.45 14.451 0 7.975-6.475 14.45-14.45 14.45-0.326-0-0.65-0.011-0.97-0.033-1.194-0.523-1.717-1.204-1.763-1.266l-0.198-2.487c2.419-0.601 5.468-2.541 5.468-2.541 5e-3 -0.069 6e-3 -0.144 6e-3 -0.222l5.328 1.682c-0.046 1.136-0.669 2.304-0.669 2.304l0.653 0.1c4.365-2.558 5.568-6.874 5.568-6.874l-0.881-0.494-1.306-6.551 0.735-3.018h1.557c-0.115-0.315-0.228-0.603-0.325-0.842h-1.045c-0.21-0.28-2.685-3.555-3.96-4.406l-0.139-1.698c-0.289-0.178-0.596-0.36-0.888-0.531l0.186 2.28-2.362 1.263-7.905-1.735c-0.367-0.6-0.908-1.428-1.377-1.929l0.525-1.323c-0.376 0.107-0.724 0.218-1.036 0.327l-0.333 0.839c-1.023 0.449-3.518 1.558-4.357 2.067l-0.262-0.023zm-3.685 15.988 0.033 7e-3c0.684 1.636 1.451 2.668 1.451 2.668l0.2-0.251c-0.34-0.711-0.375-1.573-0.353-2.13l4.912 1.083c0.805 1.245 2.496 2.779 3.384 3.544l0.242 3.041c-0.909 0.049-2.183-0.03-2.183-0.03 1.776 0.731 3.445 1.013 4.269 1.116-5.45-0.556-10.007-4.145-11.955-9.048zm21.691 3.496-5.768-1.821c-0.161-1.486-0.617-3.559-0.835-4.499l5.162-5.119 3.583 0.788 1.362 6.817 0.011-3e-3c-1.481 2.064-2.86 3.306-3.515 3.837zm-15.792-3.054-4.696-1.037c-0.997-1.781-1.435-3.877-1.595-4.853l3.024-5.637c0.464 0.118 1.466 0.294 3.458 0.371l2.432 6.755-2.623 4.401zm-6.369-1.83c0.135 0.447 0.287 0.866 0.444 1.254l-9e-3 0.044c-0.165-0.424-0.311-0.856-0.435-1.298zm9.748-2.952-2.409-6.692 3.906-3.995 6.995 1.535c0.186 0.637 0.686 2.267 1.715 5.121l-5.002 4.961-5.205-0.93zm-6.462-10.784 0.439 0.038c-0.227 0.528-0.706 1.71-0.907 2.742l-3.285 6.122c-0.05 0.475-0.069 0.868-0.076 1.132-1e-3 -0.08-2e-3 -0.158-2e-3 -0.237 0-3.779 1.454-7.221 3.831-9.797z" fill="#fff"/></svg>
